<?xml version="1.0" encoding="UTF-8"?>
<svg width="393px" height="87px" viewBox="0 0 393 87" version="1.1" xmlns="http://www.w3.org/2000/svg" xmlns:xlink="http://www.w3.org/1999/xlink">
    <title>Logo Full</title>
    <g id="Assets" stroke="none" stroke-width="1" fill="none" fill-rule="evenodd">
        <g id="Group-5" transform="translate(-50, -80)" fill="#1A1A1A">
            <g id="Logo-Full" transform="translate(50, 80)">
                <g id="Shugur" transform="translate(89.4441, 0)" fill-rule="nonzero">
                    <path d="M25.7568372,1.5338843 C29.6972488,1.5338843 33.1411045,1.96528926 36.0884043,2.82809917 C39.0357041,3.69090909 41.4063583,4.60165289 43.2003668,5.56033058 C44.9943754,6.51900826 46.0835949,7.15812672 46.4680253,7.47768595 L39.548278,19.0297521 C39.0357041,18.646281 38.1627267,18.0870523 36.9293458,17.3520661 C35.6959649,16.6170799 34.238333,15.9619835 32.55645,15.3867769 C30.8745669,14.8115702 29.1206032,14.5239669 27.2945588,14.5239669 C24.827797,14.5239669 22.8335643,14.9633609 21.3118606,15.8421488 C19.7901569,16.7209366 19.0293051,18.0231405 19.0293051,19.7487603 C19.0293051,20.9311295 19.4377624,21.9936639 20.254677,22.9363636 C21.0715916,23.8790634 22.3209904,24.7738292 24.0028734,25.6206612 C25.6847565,26.4674931 27.8231506,27.3862259 30.4180558,28.3768595 C32.78871,29.2396694 35.0152028,30.262259 37.0975341,31.4446281 C39.1798655,32.6269972 41.0139189,34.0250689 42.5996943,35.638843 C44.1854697,37.2526171 45.4428775,39.1140496 46.3719177,41.2231405 C47.3009578,43.3322314 47.7654779,45.7289256 47.7654779,48.4132231 C47.7654779,51.6088154 47.1087426,54.3809917 45.7952721,56.7297521 C44.4818015,59.0785124 42.6958019,61.0198347 40.4372733,62.553719 C38.1787447,64.0876033 35.6158753,65.2300275 32.7486652,65.9809917 C29.8814551,66.7319559 26.9101284,67.107438 23.8346851,67.107438 C19.4778072,67.107438 15.5774404,66.6121212 12.1335847,65.6214876 C8.68972896,64.630854 5.91061749,63.5603306 3.79625025,62.4099174 C1.68188302,61.2595041 0.416466273,60.492562 0,60.1090909 L7.1600163,48.077686 C7.54444671,48.3652893 8.28928062,48.8286501 9.39451804,49.4677686 C10.4997555,50.1068871 11.8532708,50.7699725 13.4550642,51.4570248 C15.0568576,52.1440771 16.7627675,52.7272727 18.572794,53.2066116 C20.3828205,53.6859504 22.1688201,53.9256198 23.9307927,53.9256198 C26.8780925,53.9256198 29.0885674,53.3584022 30.5622172,52.2239669 C32.0358671,51.0895317 32.7726921,49.5955923 32.7726921,47.7421488 C32.7726921,46.3680441 32.308172,45.137741 31.3791319,44.0512397 C30.4500917,42.9647383 29.0565315,41.9341598 27.1984512,40.9595041 C25.3403709,39.9848485 23.0177705,38.95427 20.2306501,37.8677686 C17.4435297,36.7493113 14.8406154,35.3911846 12.4219075,33.7933884 C10.0031995,32.1955923 8.04100265,30.1983471 6.53531689,27.8016529 C5.02963114,25.4049587 4.27678826,22.4330579 4.27678826,18.8859504 C4.27678826,15.338843 5.27790911,12.2630854 7.2801508,9.65867769 C9.2823925,7.05426997 11.9253515,5.04903581 15.2090279,3.64297521 C18.4927043,2.2369146 22.0086407,1.5338843 25.7568372,1.5338843 Z" id="Path"></path>
                    <path d="M83.9499898,25.4528926 C86.7050744,25.4528926 89.3960872,26.0121212 92.0230283,27.1305785 C94.6499694,28.2490358 96.8123905,30.0146006 98.5102914,32.4272727 C100.208192,34.8399449 101.057143,38.0115702 101.057143,41.9421488 L101.057143,65.9570248 L86.4487874,65.9570248 L86.4487874,44.338843 C86.4487874,41.5267218 85.8160791,39.4096419 84.5506623,37.9876033 C83.2852456,36.5655647 81.5633177,35.8545455 79.3848787,35.8545455 C77.9432647,35.8545455 76.5657224,36.2300275 75.2522519,36.9809917 C73.9387813,37.7319559 72.8735888,38.7865014 72.0566741,40.1446281 C71.2397595,41.5027548 70.8313022,43.0606061 70.8313022,44.8181818 L70.8313022,65.9570248 L56.174893,65.9570248 L56.174893,0 L70.8313022,0 L70.8313022,32.4033058 C71.1836968,31.3487603 71.9765845,30.2862259 73.2099654,29.2157025 C74.4433462,28.1451791 75.9970858,27.2504132 77.871184,26.531405 C79.7452822,25.8123967 81.7715508,25.4528926 83.9499898,25.4528926 Z" id="Path"></path>
                    <path d="M123.546322,44.8181818 C123.546322,47.9498623 124.138985,50.4504132 125.324312,52.3198347 C126.509639,54.1892562 128.495863,55.1239669 131.282983,55.1239669 C134.134176,55.1239669 136.144426,54.1892562 137.313735,52.3198347 C138.483045,50.4504132 139.067699,47.9498623 139.067699,44.8181818 L139.067699,26.6033058 L153.483839,26.6033058 L153.483839,46.3520661 C153.483839,50.5702479 152.610862,54.2371901 150.864907,57.3528926 C149.118953,60.468595 146.596128,62.8732782 143.296434,64.5669421 C139.996739,66.2606061 135.992256,67.107438 131.282983,67.107438 C126.605747,67.107438 122.617281,66.2606061 119.317587,64.5669421 C116.017893,62.8732782 113.503077,60.468595 111.77314,57.3528926 C110.043204,54.2371901 109.178235,50.5702479 109.178235,46.3520661 L109.178235,26.6033058 L123.546322,26.6033058 L123.546322,44.8181818 Z" id="Path"></path>
                    <path d="M183.084981,87 C180.329896,87 177.598838,86.7603306 174.891808,86.2809917 C172.184777,85.8016529 169.661952,84.9867769 167.323334,83.8363636 C164.984716,82.6859504 163.01451,81.1041322 161.412717,79.0909091 L169.966293,70.2231405 C170.703118,71.0859504 171.608131,71.9327824 172.681333,72.7636364 C173.754534,73.5944904 175.084023,74.2815427 176.669798,74.8247934 C178.255574,75.3680441 180.185735,75.6396694 182.460281,75.6396694 C184.574648,75.6396694 186.416711,75.2721763 187.986468,74.5371901 C189.556226,73.8022039 190.781598,72.7316804 191.662584,71.3256198 C192.54357,69.9195592 192.984064,68.2099174 192.984064,66.1966942 L192.984064,65.2380165 L207.35215,65.2380165 L207.35215,67.0595041 C207.35215,71.4055096 206.270939,75.0644628 204.108518,78.0363636 C201.946097,81.0082645 199.038842,83.2451791 195.386754,84.7471074 C191.734665,86.2490358 187.634074,87 183.084981,87 Z M192.984064,65.9570248 L192.984064,59.5818182 C192.695741,60.2209366 191.966925,61.1476584 190.797616,62.3619835 C189.628307,63.5763085 188.082576,64.6707989 186.160424,65.6454545 C184.238272,66.6201102 181.995761,67.107438 179.432892,67.107438 C175.588588,67.107438 172.224822,66.1727273 169.341594,64.3033058 C166.458366,62.4338843 164.215855,59.9253444 162.614062,56.777686 C161.012268,53.6300275 160.211372,50.138843 160.211372,46.3041322 C160.211372,42.4694215 161.012268,38.9782369 162.614062,35.8305785 C164.215855,32.6829201 166.458366,30.1663912 169.341594,28.2809917 C172.224822,26.3955923 175.588588,25.4528926 179.432892,25.4528926 C181.899654,25.4528926 184.062075,25.8443526 185.920155,26.6272727 C187.778235,27.4101928 189.283921,28.3369146 190.437212,29.407438 C191.590503,30.4779614 192.3914,31.4606061 192.839902,32.3553719 L192.839902,26.6033058 L207.35215,26.6033058 L207.35215,65.9570248 L192.984064,65.9570248 Z M174.531404,46.3041322 C174.531404,48.0936639 174.94787,49.699449 175.780803,51.1214876 C176.613735,52.5435262 177.726982,53.6539945 179.120542,54.4528926 C180.514102,55.2517906 182.059833,55.6512397 183.757734,55.6512397 C185.519707,55.6512397 187.073446,55.2517906 188.418953,54.4528926 C189.764459,53.6539945 190.829652,52.5435262 191.61453,51.1214876 C192.399409,49.699449 192.791848,48.0936639 192.791848,46.3041322 C192.791848,44.5146006 192.399409,42.9088154 191.61453,41.4867769 C190.829652,40.0647383 189.764459,38.946281 188.418953,38.131405 C187.073446,37.3165289 185.519707,36.9090909 183.757734,36.9090909 C182.059833,36.9090909 180.514102,37.3165289 179.120542,38.131405 C177.726982,38.946281 176.613735,40.0647383 175.780803,41.4867769 C174.94787,42.9088154 174.531404,44.5146006 174.531404,46.3041322 Z" id="Shape"></path>
                    <path d="M230.562136,44.8181818 C230.562136,47.9498623 231.154799,50.4504132 232.340126,52.3198347 C233.525453,54.1892562 235.511677,55.1239669 238.298798,55.1239669 C241.14999,55.1239669 243.16024,54.1892562 244.32955,52.3198347 C245.498859,50.4504132 246.083513,47.9498623 246.083513,44.8181818 L246.083513,26.6033058 L260.499654,26.6033058 L260.499654,46.3520661 C260.499654,50.5702479 259.626676,54.2371901 257.880721,57.3528926 C256.134767,60.468595 253.611942,62.8732782 250.312248,64.5669421 C247.012553,66.2606061 243.00807,67.107438 238.298798,67.107438 C233.621561,67.107438 229.633096,66.2606061 226.333401,64.5669421 C223.033707,62.8732782 220.518891,60.468595 218.788955,57.3528926 C217.059018,54.2371901 216.194049,50.5702479 216.194049,46.3520661 L216.194049,26.6033058 L230.562136,26.6033058 L230.562136,44.8181818 Z" id="Path"></path>
                    <path d="M282.748563,65.9570248 L268.140208,65.9570248 L268.140208,26.6033058 L282.748563,26.6033058 L282.748563,32.6909091 L282.508294,32.6909091 C282.764581,31.9559229 283.389281,31.0212121 284.382393,29.8867769 C285.375504,28.7523416 286.769065,27.7297521 288.563073,26.8190083 C290.357082,25.9082645 292.551539,25.4528926 295.146444,25.4528926 C296.972488,25.4528926 298.654371,25.7325069 300.192093,26.2917355 C301.729815,26.8509642 302.85107,27.3862259 303.555859,27.8975207 L297.88551,39.7371901 C297.437008,39.1939394 296.644121,38.6267218 295.506847,38.0355372 C294.369574,37.4443526 292.951987,37.1487603 291.254086,37.1487603 C289.299898,37.1487603 287.690096,37.6440771 286.424679,38.6347107 C285.159262,39.6253444 284.230222,40.8236915 283.637559,42.2297521 C283.044895,43.6358127 282.748563,44.9619835 282.748563,46.2082645 L282.748563,65.9570248 Z" id="Path"></path>
                </g>
                <g id="Logo" transform="translate(0, 6.0397)">
                    <path d="M20,0 L49.5463148,0 C57.5684824,-1.77635684e-15 64.0717343,6.50325182 64.0717343,14.5254195 C64.0717343,22.5475871 57.5684824,29.050839 49.5463148,29.050839 L0,29.050839 L0,29.050839 L3.55271368e-15,20 C3.55271368e-15,8.954305 8.954305,3.55271368e-15 20,3.55271368e-15 Z" id="Rectangle-Copy-4" transform="translate(32.0359, 14.5254) scale(-1, -1) translate(-32.0359, -14.5254)"></path>
                    <path d="M14.5254195,34.8610068 L64.0717343,34.8610068 L64.0717343,34.8610068 L64.0717343,43.9118457 C64.0717343,54.9575407 55.1174293,63.9118457 44.0717343,63.9118457 L14.5254195,63.9118457 C6.50325182,63.9118457 0,57.4085939 0,49.3864262 C-1.77635684e-15,41.3642586 6.50325182,34.8610068 14.5254195,34.8610068 Z" id="Rectangle-Copy-9" transform="translate(32.0359, 49.3864) scale(-1, -1) translate(-32.0359, -49.3864)"></path>
                </g>
            </g>
        </g>
    </g>
</svg>